<svg id="Layer_2" data-name="Layer 2" xmlns="http://www.w3.org/2000/svg" width="212.1826" height="191.5292" viewBox="0 0 212.1826 191.5292"><defs><style>.cls-1{fill:#01fe03;}</style></defs><title>tv</title><path id="tv" class="cls-1" d="M207.6826,47.8627H117.4495a5.7887,5.7887,0,0,0-1.5494-3.66L151.3518,4.5055a1.3487,1.3487,0,0,0-.2479-1.8206L148.8131.4668a1.3487,1.3487,0,0,0-1.8276-.1891L105.6082,39.7012a24.6788,24.6788,0,0,0-5.7759.0339L56.5475.8442a1.3487,1.3487,0,0,0-1.8214.2424L52.5012,3.3707a1.3487,1.3487,0,0,0-.1946,1.827L89.569,44.5437a5.624,5.624,0,0,0-1.2653,3.319H4.5a4.5,4.5,0,0,0-4.5,4.5v126.25a4.5,4.5,0,0,0,4.5,4.5H20.5991v6.7707a1.6459,1.6459,0,0,0,1.6459,1.6458h3.7083a1.6458,1.6458,0,0,0,1.6458-1.6458v-6.7707h160v6.7707a1.6459,1.6459,0,0,0,1.6459,1.6458h3.7083a1.6458,1.6458,0,0,0,1.6458-1.6458v-6.7707h13.0835a4.5,4.5,0,0,0,4.5-4.5V52.3627A4.5,4.5,0,0,0,207.6826,47.8627ZM9,56.8627H171.1665v117.25H9Zm194.1826,117.25H175.1665V56.8627h28.0161Z"/><g id="rad"><path class="cls-1" d="M180.5,133.5834h16.833a2,2,0,0,0,0-4H180.5a2,2,0,0,0,0,4Z"/><path class="cls-1" d="M180.5,143.5834h16.833a2,2,0,0,0,0-4H180.5a2,2,0,0,0,0,4Z"/><path class="cls-1" d="M180.5,153.5834h16.833a2,2,0,0,0,0-4H180.5a2,2,0,0,0,0,4Z"/><path class="cls-1" d="M197.333,159.5834H180.5a2,2,0,0,0,0,4h16.833a2,2,0,0,0,0-4Z"/></g></svg>