<svg id="Layer_1" data-name="Layer 1" xmlns="http://www.w3.org/2000/svg" width="491.8046" height="704.2705" viewBox="0 0 491.8046 704.2705"><defs><style>.cls-1{fill:#01fe03;}</style></defs><title>poster</title><path class="cls-1" d="M401.9824,710.0058a20.0987,20.0987,0,0,1-5.4873-.6347,208.4869,208.4869,0,0,0-30.3886-5.6231c-1.917-.2129-4.0323-.4648-6.294-.7353-9.9629-1.1905-22.3623-2.6709-33.3545-2.6709-8.4287,0-17.4346,1.8076-24.01,3.1269a57.2717,57.2717,0,0,1-9.07,1.4356c-4.4257,0-10.4091-6.7041-13.97-11.2676-3.5576,3.4346-9.6367,9.0059-12.6172,9.999a23.34,23.34,0,0,1-6.747.6348c-2.712,0-5.959-.13-9.0987-.2549-3.0908-.124-6.2871-.2519-8.8984-.2519-4.2539,0-9.9844.3388-15.04.6376-4.3759.2588-8.51.503-11.1962.503-18.9532,0-42.6143-.4268-47.6973-2.46-3.9668-1.5869-7.8174-5.0351-10.1494-7.4014-2.0156,2.7911-5.5137,6.8809-9.666,8.542-4.3848,1.753-19.3907,1.89-23.8858,1.89-9.2256,0-20.5342-.4834-24.6025-1.8389-4.7871-1.5957-8.06-5.8554-9.9268-9.05-3.0312,3.75-8.2217,9.3653-12.747,10.2695a34.7859,34.7859,0,0,1-6.0694.3594c-10.7685,0-31.88-1.6933-39.2187-2.6113a31.22,31.22,0,0,0-3.8262-.2129c-8.2178,0-17.9727,2.415-18.07,2.44a2.5009,2.5009,0,0,1-3.1065-2.4258c0-11.1973-2.2539-46.2549-2.2773-46.6074a2.4988,2.4988,0,0,1,.3242-1.4014c.2041-.3574,5.07-8.7725,11.5088-11.3477,3.1543-1.2617,5.59-4.3838,6.8545-6.3105-5.2852-4.2158-13.2246-6.0186-13.3115-6.0381A2.4992,2.4992,0,0,1,8.02,628.67a116.5466,116.5466,0,0,1-1.1748-17.5215,92.4058,92.4058,0,0,0-.7353-10.6933,73.622,73.622,0,0,1-.3926-16.9327c.3955-3.957-.0937-9.97-.6113-16.3359-1.0069-12.3936-1.959-24.1,2.4717-28.5293a43.3666,43.3666,0,0,1,9.083-6.9521c-2.9991-3.4043-8.0186-9.7373-9.72-15.6885-2.3779-8.3213-2.3779-20.8887-2.3779-29.2041,0-8.1172,2.2275-20.459,2.3223-20.9805a2.5,2.5,0,0,1,1.2-1.7119l10.9472-6.3867c-4.3916-4.7373-13.3281-15.24-13.3281-22.253v-15.97a2.5,2.5,0,0,1,.2637-1.1181l4.956-9.9122c-2.125-2.6582-6.1748-8.871-5.2-16.6572,1.1026-8.8232-.0068-40.3476-.0175-40.665a2.4985,2.4985,0,0,1,.8974-2.01,94.0154,94.0154,0,0,1,16.4522-10.582c5.6474-2.8233,12.4033-3.9951,17.09-4.4815-3.7558-3.4033-8.418-6.7519-11.4092-6.7519-7.35,0-16.6933-4.63-17.0879-4.8262a2.5025,2.5025,0,0,1-1.2314-1.3818,117.22,117.22,0,0,1-5.8467-28.04c-.8418-10.9423-2.5234-37.91.0322-51.97,1.1993-6.5928-.3544-10.2773-2.0009-14.1777C1.3223,223.9053,0,220.7705,0,216.4668c0-6.3682,2.1377-8.7647,4.0244-10.878a12.1173,12.1173,0,0,0,2.9483-4.7421c.76-2.2784.3808-4.0909-.0977-6.3848A20.6559,20.6559,0,0,1,8.2012,180.09c3.8086-8.5713,4.5879-17.247,2.1933-24.43a12.7714,12.7714,0,0,0-6.5586-7.6025,2.5222,2.5222,0,0,1-1.5292-2.668c.0341-.2392,3.43-24.0332,4.5537-34.1435.3564-3.208.9228-6.0674,1.4707-8.8321C9.5352,96.3388,10.6729,90.6,9.166,82.3115,6.9268,69.9922,3.53,56.37,3.4971,56.2344a2.5,2.5,0,0,1,.3047-1.9317c.0488-.0781,5.248-8.7,4.1914-22.4375A244.2223,244.2223,0,0,0,4.6113,5.9277,2.4982,2.4982,0,0,1,6.165,3.1045C11.8379.9228,19.5313-.1836,29.0313-.1836c11.3447,0,23.08,1.6523,27.872,3.249C62.3242,4.872,68.75,10.92,71.9473,14.1924,75.36,10.248,82.7617,2.87,90.375,2.87a11.4013,11.4013,0,0,1,1.4092.0869c7.38.9219,15.8789,5.8428,19.6689,8.2461l6.5655-8.4414a2.4974,2.4974,0,0,1,1.7959-.958c.1591-.0117,16.09-1.1524,28.4687-2.2774,1.7744-.1621,3.6475-.2431,5.5674-.2431a86.1557,86.1557,0,0,1,20.4121,2.6015,2.51,2.51,0,0,1,.7754.3643l8.8926,6.2236a13.3319,13.3319,0,0,1,11.8984-6.7744,18.1089,18.1089,0,0,1,2.0068.1143,35.3627,35.3627,0,0,0,3.6006.1387c4.7032,0,11.9571-.4209,19.6377-.8672C230.2568.5508,239.751,0,247.1582,0c10.6309,0,13.2041,1.1172,14.2354,3.1787,1.5185,3.0381,4.417,10.7246,6.3066,15.8613L278.6865.73a2.4869,2.4869,0,0,1,2.3213-1.2071l15.97,1.1407c2.2823.1621,5.1846.2422,8.8731.2412,4.2256,0,8.8477-.1,13.7412-.2051,4.8994-.1064,9.9658-.2158,14.6055-.2158,13.2812,0,19.083.8633,21.4052,3.1865,2.9952,2.9941,5.419,8.6445,6.9336,12.8867,4.0889-6.1318,12.0079-15.9,20.9571-15.9,3.4883,0,8.1465-.334,13.0771-.6865,5.7246-.41,11.6446-.834,16.835-.834,5.9365,0,9.8359.5664,12.2715,1.7842a9.7224,9.7224,0,0,1,5.2226,6.3916c3.0313-3.38,7.1865-6.6553,11.91-6.6553,7.9863,0,37.708,2.1944,38.9687,2.2881a2.5,2.5,0,0,1,2.2862,2.8731c-.0215.1445-2.208,14.5136-1.1455,20.8818a16.8607,16.8607,0,0,1-.8174,7.9834c-.8125,2.7773-1.0576,3.6162,1.0537,5.3047a2.5,2.5,0,0,1,.9111,1.581c1.3311,8.877,3.1992,24.3184.7481,27.9942-1.3457,2.02-3.9307,3.05-7.69,2.998l5.2813,6.6016a2.4886,2.4886,0,0,1,.5224,1.208l3.4122,23.8857c1.0947,5.49,3.3222,18.4922.7558,22.3418-1.5654,2.3487-4.9014,3.4834-7.9,4.0313,2.5713,2.8056,5.6856,6.8027,7.0518,10.9023,1.4629,4.3877.06,14.3487-2.2451,29.044-1.126,7.1806-2.19,13.9629-2.19,17.374,0,8.7051,2.2627,15.4551,7.8184,29.9014,5.7695,15.0019-1.4619,40.11-4.1836,49.5625l-.3076,1.0713c-1.666,5.8291-9.4238,9.4082-15.4033,11.3457,4.72,2.3916,10.331,5.9365,11.8974,9.8535,2.3252,5.81,2.4541,16.5449,2.461,17.91l1.1279,11.2871c.0068.0645.0107.128.0117.1924.0469,2.0508,1.1416,50.2969,1.1416,57.0908,0,5.2862-5.0732,7.9424-9.53,9.2549,3.5264,2.3672,7.6475,5.4151,9.11,7.61,1.5752,2.3633,1.4375,11.5635-.7041,46.88-.6211,10.2412-1.1572,19.0859-1.1572,22.9482,0,4.6465-.8916,11.6729-1.835,19.1123-1.375,10.833-2.9326,23.1113-1.6621,28.19.84,3.3594,2.1885,7.7842,3.4941,12.0645,2.8409,9.3174,4.5655,15.1924,4.5655,18.2,0,3.4316-1.8487,23.625-10.0254,30.4385a28.0289,28.0289,0,0,1-11.9619,5.3515l11.5869,6.5186a2.4974,2.4974,0,0,1,1.0107,1.0605c.5088,1.0186,4.9385,10.1065,3.6113,15.4131-.46,1.8389.9229,9.2051,2.0342,15.124,1.28,6.8194,2.6035,13.8711,2.6035,18.49,0,3.3369-.56,8.4814-1.206,14.4394-1.126,10.3555-2.5264,23.2432-1.1348,29.5059,1.19,5.3525,4.3486,23.1054-4.9346,26.8183a23.4979,23.4979,0,0,1-8.4248,1.1553A164.2727,164.2727,0,0,1,452.41,702.997c-1.0743-.14-2.1016-.2724-3.0664-.3935-6.5743-.8213-18.42-5.44-25.2178-8.2637l2.8047,8.4151a2.5,2.5,0,0,1-1.667,3.1884C424.7,706.1094,411.3447,710.0058,401.9824,710.0058Zm-75.5244-14.664c11.29,0,23.8526,1.501,33.9483,2.706,2.247.2686,4.3476.52,6.2529.7315a213.8407,213.8407,0,0,1,31.209,5.7842,15.5718,15.5718,0,0,0,4.1142.4423c6.3623,0,15.126-2.0673,19.3692-3.1757l-3.7276-11.1836a2.5,2.5,0,0,1,3.3877-3.0743c.2022.0889,20.2989,8.9883,28.9522,10.07.9717.1211,2.0078.2558,3.09.3955a160.5982,160.5982,0,0,0,18.7617,1.7021c3.7813,0,5.6582-.4336,6.5674-.7978,3.5108-1.4043,4.3145-10.2745,1.9112-21.0918-1.57-7.0674-.1817-19.8516,1.0439-31.13.6055-5.5713,1.1777-10.834,1.1777-13.8994,0-4.1543-1.3379-11.28-2.5175-17.5674-1.6719-8.9033-2.6612-14.501-1.97-17.26.5918-2.3691-1.2529-7.78-2.9052-11.2871l-17.5694-9.8828a2.5,2.5,0,0,1,1.2256-4.6787c.1025,0,10.6016-.083,16.65-5.124,5.752-4.792,8.2266-21.8379,8.2266-26.5967,0-2.48-2.3106-10.0567-4.3487-16.7422-1.3232-4.34-2.6914-8.8272-3.5625-12.31-1.497-5.99.0537-18.2129,1.5528-30.0332.9238-7.2773,1.7959-14.1523,1.7959-18.4824,0-4.0137.541-12.9277,1.166-23.251.9179-15.1386,2.4472-40.3652,1.4345-43.9463-1.5732-2.1093-8.36-6.707-12.7939-9.3672a2.5,2.5,0,0,1,1.0781-4.6347c3.5684-.3047,11.3965-2.11,11.3965-5.4942,0-6.5966-1.082-54.4121-1.1377-56.8818l-1.1308-11.31a2.3612,2.3612,0,0,1-.0127-.2491c0-.1093-.0284-10.9961-2.1036-16.1816-1.291-3.2285-9.95-7.793-15.6875-10.0029a2.5,2.5,0,0,1,.4366-4.79c6.4716-1.22,17.2422-4.914,18.5918-9.6367l.31-1.082c2.3467-8.1485,9.4893-32.9483,4.3223-46.3838-5.793-15.0625-8.1524-22.1465-8.1524-31.6963,0-3.8008,1.043-10.45,2.251-18.1484,1.5313-9.76,3.6279-23.127,2.44-26.6885-2.03-6.0938-9.4482-12.5186-9.5224-12.582a2.5,2.5,0,0,1,1.6279-4.3975c3.6865-.0059,8.4248-.9561,9.3272-2.3086.8662-1.5488.164-10.2734-1.5118-18.6553-.01-.0449-.0175-.0908-.0234-.1367l-3.3262-23.2793-8.6992-10.875a2.5,2.5,0,0,1,2.5586-3.9873,25.7677,25.7677,0,0,0,5.3535.6709c2.252,0,3.1758-.4853,3.3672-.7725.9356-1.9257.0518-13.5566-1.3984-23.5654-3.8213-3.5576-2.791-7.08-1.9532-9.9443a12.1654,12.1654,0,0,0,.6846-5.7578c-.9014-5.4.1494-15.0879.7608-19.7842-7.6416-.55-29.5049-2.0811-35.9385-2.0811-5.3057,0-11.043,8.3282-12.6348,11.2451a2.5,2.5,0,0,1-4.5351-2.0751c.1025-.2793,2.53-7.0694-2.1993-9.4336-1.1464-.5733-3.8193-1.2569-10.0351-1.2569-5.0117,0-10.8408.417-16.4776.8213-5.0224.3594-9.7666.6992-13.4345.6992-8.1231,0-16.8037,13.0381-19.4629,18.0616a2.501,2.501,0,0,1-4.6221-.5118c-.9053-3.3144-3.9892-12.65-7.3408-16.0009-.5772-.5137-3.4873-1.7217-17.87-1.7217-4.585,0-9.624.1084-14.4971.2138-4.9219.1065-9.57.2071-13.85.2071-3.8086.001-6.8272-.083-9.2285-.2549L282.1836,4.6181,269.2861,26.1152a2.5,2.5,0,0,1-4.498-.4453c-.0547-.1533-5.37-15.0146-7.6758-19.8633-.6465-.2529-2.87-.8066-9.9541-.8066-7.2617,0-16.6826.5469-25.7939,1.0762-7.7549.45-15.08.875-19.9278.875a39.2431,39.2431,0,0,1-4.1533-.17,13.3894,13.3894,0,0,0-1.4541-.083,8.4434,8.4434,0,0,0-8.3965,6.2061,2.51,2.51,0,0,1-3.8545,1.4248L172.542,6.6054a83.0612,83.0612,0,0,0-18.6914-2.3222c-1.7695,0-3.49.0742-5.1143.2217-10.5293.958-23.6054,1.9248-27.4541,2.205l-7.3017,9.3887a2.5039,2.5039,0,0,1-3.4063.5137c-.1093-.0762-11.0166-7.6455-19.4092-8.6944a6.3727,6.3727,0,0,0-.79-.0478c-6.22,0-13.8691,8.3848-16.292,11.6152a2.4993,2.4993,0,0,1-3.8681.1612C67.7959,16.9287,60.4063,9.5039,55.3223,7.81c-3.6211-1.207-14.4815-2.9931-26.291-2.9931C21.35,4.8164,14.8,5.6025,9.915,7.1c.7129,4.001,2.2012,13.1728,3.0625,24.3828.99,12.8691-2.9091,21.6758-4.3925,24.5039.8193,3.3525,3.5781,14.8545,5.5009,25.4307,1.6768,9.2236.3916,15.7031-.8505,21.97-.5274,2.6621-1.0733,5.415-1.4063,8.4121-.9531,8.5811-3.52,26.8691-4.3271,32.5684a18.1154,18.1154,0,0,1,7.6367,9.7109c2.789,8.3691,1.9482,18.3281-2.3692,28.043-2.289,5.1494-1.663,8.1465-1,11.3183.5567,2.669,1.1338,5.4287-.0527,8.9883a17.0786,17.0786,0,0,1-3.9619,6.4893C6.0957,210.7763,5,212.0049,5,216.4668c0,3.292,1.0234,5.7177,2.209,8.5273,1.7715,4.1983,3.7793,8.9571,2.3135,17.0156-2.5215,13.8653-.6123,42.3057.0322,50.6924a115.034,115.034,0,0,0,5.2344,25.7588c2.3789,1.0869,8.9619,3.8721,13.9472,3.8721,7.7334,0,17.8418,10.9824,18.9688,12.2344a2.5011,2.5011,0,0,1-1.8574,4.1728c-.1192,0-12.083.0625-20.5557,4.2988a91.9307,91.9307,0,0,0-14.5469,9.2022c.2022,6.1064.9746,31.92-.0605,40.2031-.97,7.7549,4.9355,13.836,4.9961,13.8965a2.5116,2.5116,0,0,1,.4629,2.8809l-5.4395,10.8789v15.38c0,5.0557,8.6465,15.5928,14.0967,21.0469a2.5,2.5,0,0,1-.5088,3.9268l-12.6836,7.3984c-.5459,3.2246-2.0459,12.6582-2.0459,18.96,0,7.5478,0,20.1816,2.1856,27.831,2.08,7.2774,10.6845,15.9424,10.77,16.0293a2.5,2.5,0,0,1-.8389,4.0889,36.0888,36.0888,0,0,0-10.5674,7.4307c-2.7949,2.7949-1.7705,15.3916-1.0224,24.5888.5361,6.5987,1.0429,12.83.6015,17.2393a68.5206,68.5206,0,0,0,.3877,15.8848,96.5159,96.5159,0,0,1,.7656,11.2431A123.5591,123.5591,0,0,0,12.73,626.26c3.3262.9444,10.74,3.4629,15.4932,8.2159a2.5,2.5,0,0,1,.4687,2.8857c-.1572.3145-3.9228,7.7246-10.4336,10.3291-3.6533,1.4609-7.18,6.2051-8.65,8.5625.3135,4.9229,1.9248,30.6113,2.1983,43.04a86.1835,86.1835,0,0,1,16.2158-1.9023,36.0379,36.0379,0,0,1,4.4463.252c7.2305.9033,28.0127,2.5722,38.5986,2.5722a29.9139,29.9139,0,0,0,5.0889-.2617c3.4306-.6865,9.2617-7.4375,12.1308-11.5312a2.5009,2.5009,0,0,1,4.3887.5566c.0293.0762,3.1065,8.0439,8.7158,9.9131,2.7959.9326,12.2627,1.583,23.0215,1.583,11.9473,0,20.125-.77,22.0283-1.5322,4.0147-1.6055,7.875-7.1748,9.0235-9.1856a2.4992,2.4992,0,0,1,1.95-1.249,2.4655,2.4655,0,0,1,2.1406.8877c.0527.0635,5.3789,6.3916,10.416,8.4062,2.541,1.0166,15.917,2.1026,45.84,2.1026,2.539,0,6.6005-.24,10.9013-.4942,5.125-.3027,10.9336-.6464,15.335-.6464,2.7109,0,5.958.13,9.0976.2558,3.0918.1231,6.2881.251,8.8995.251a19.706,19.706,0,0,0,5.1669-.3789c1.7676-.5889,7.9747-6.0664,12.711-10.8028a2.5407,2.5407,0,0,1,1.9629-.7246,2.4992,2.4992,0,0,1,1.8261,1.0215c4.3838,6.0225,9.9454,11.5127,11.667,11.5186a60.2426,60.2426,0,0,0,8.087-1.3379C308.2451,697.206,317.5322,695.3418,326.458,695.3418Z"/><path class="cls-1" d="M45.6337,197.9707c1.8135.8381,3.5549,2.9893,5.4474,1.11.37-.3672,1.0558-1.3173,1.525-1.4945,1.1694-.4416.78,1.1884.7586,1.7448-.024.6272.292,1.8313.9573,2.0382.628.1953,1.193-.2562,1.8769.1036,1.388.73,1.9694,2.4369,2.5951,3.748.5434,1.1387,1.3816,2.4676,1.8452,3.6962.3986,1.0562.2009.99-.3053,1.8275-.5229.8647-.3979,2.4778-.503,3.4644a10.4546,10.4546,0,0,0-.0178,3.2835c.1873.65.609,1.0548.79,1.69a7.4278,7.4278,0,0,1,.6982,2.2534,6.2217,6.2217,0,0,0,.6887,2.3709c.29.7326.97,1.45.228,1.7628a4.9691,4.9691,0,0,1-2.0177-.0607,2.54,2.54,0,0,0-2.1847,1.0258c-1.0267.999-2.07,1.9819-3.1041,2.9731a14.5066,14.5066,0,0,0-1.7334,1.6359c-.65.8953-.6347,1.91-1.9436,1.0315-.67-.45-.9914-1.0411-1.7546-1.3572a6.5751,6.5751,0,0,1-1.7925-.7063c-.62-.4851-.4406-1.0821-1.009-1.48-.9744-.6817-1.5446.6946-2.2864,1.1069a5.4924,5.4924,0,0,1-1.9533.8838c-.48.0455-1.003-.1264-1.4783-.0558-.7251.1077-.964.4282-1.4961-.3827-.4927-.7507-.11-2.1682-.6538-2.6729a10.7237,10.7237,0,0,0-1.2442-.2455,14.2983,14.2983,0,0,0-1.9658-.2327c-.8489-.0153-1.6551.2082-2.54.1434-.7509-.0549-1.8451.3906-2.4969.2261-1.87-.4719.4327-2.08.7686-2.6736a3.382,3.382,0,0,0,.1411-2.4484c-.3376-.46-.9644-.1745-1.2373-.7972-.2789-.6363.2917-1.3187.0956-2.0175-.3621-1.2907-1.3463-1.0518-2.2756-1.6907-.6143-.4225-1.0454-1.0279-1.71-1.44q-.5727-.3156-1.125-.6656a5.9268,5.9268,0,0,0-1.3612-.24,4.5716,4.5716,0,0,1-1.4058-.5915c-.5095-.3231-.7917-.9665-1.2916-1.2592-.36-.2108-.7533.0081-1.0058-.4671-.57-1.0719,1.65-.5012,2.0556-.5094a13.8845,13.8845,0,0,0,4.2605-.5944,6.4476,6.4476,0,0,0,2.2773-1.2195c.3892-.6761.02-2.2486.0165-2.9852-.0045-1.0255-.5129-1.7887-.57-2.7414-.0655-1.1014.5738-1.85.4473-2.988a13.2854,13.2854,0,0,0-.8168-2.6719c-.3615-1.0723-.9582-4.663.2711-5.42a13.9894,13.9894,0,0,1,2.4089,2.4368c.7053.7359,1.3831,1.5226,2.1221,2.2244.9868.937,1.81.1515,3.0165.2293.6717.0433,1.32.45,1.9489.507a2.8341,2.8341,0,0,0,1.56-.5324,4.8055,4.8055,0,0,0,1.9131-3.1361,12.4309,12.4309,0,0,0,1.8356,1.9635c.5665.4463.4087.4584.9953.022C44.3939,197.3277,45.15,198.3286,45.6337,197.9707Z"/><path class="cls-1" d="M438.0358,645.2829a6.9126,6.9126,0,0,0,2.8511.4729c1.212-.0575,1.4286-.9139,2.23-1.59.8049-.679,1.7472-.6671,2.3737-1.6418.7836-1.2189.8539-2.8178,1.8882-3.9279-.2882,1.2757-.928,4.087.4746,4.9211.723.43,1.2679-.3652,1.9764-.5688a1.9045,1.9045,0,0,1,2.01.2121c.4228.3343,1.0478,1.2,1.5951,1.2712a2.8873,2.8873,0,0,0,1.4949-.5608,3.6994,3.6994,0,0,1,2.5757-.8583c1.13.092,1.4318.371,2.2671-.417.9988.511,1.0035.8669.583,1.8136a2.8468,2.8468,0,0,0-.39,2.3441c.14.3051.4961.3748.6009.6948.1168.3564-.0463.82.003,1.1908a5.5347,5.5347,0,0,0,.9843,1.9773c.5532.9443.6584.5268,1.6314.9038.9183.3557,1.1752,1.1922,1.5282,2.0157.73,1.7032.086,3.5952,2.1112,4.5751a9.2713,9.2713,0,0,1,2.0528,1.3859c.26.2178,1.8018,1.42,1.1872,1.8179-.16.1036-.9489-.2162-1.1237-.2635a2.0172,2.0172,0,0,0-1.4972-.0145,4.2141,4.2141,0,0,0-2.0629,1.4881c-.8918,1.0642-2.6443,2.381-2.3138,3.929.1291.6046.6331,1.013.6588,1.681a3.2217,3.2217,0,0,1-1.4456,2.3018,4.4327,4.4327,0,0,0-2.0691-.903c-.7395.0548-1.3921,1.2543-1.85,1.7935a9.6864,9.6864,0,0,0-1.7738,2.1953c-.3443.8647.04,1.9993-.3568,2.8363-1.3274-.5262-1.32-2.2327-2.193-3.1206a9.0024,9.0024,0,0,0-1.15,1.2831,4.1253,4.1253,0,0,1-1.6136.9361,6.7306,6.7306,0,0,0-1.5327,1.005,4.4293,4.4293,0,0,0-.8988.619c-.2255.2428-.3513.5881-.6859.7113-.4868.1792-1.0427-.1511-1.5231-.1636a3.5739,3.5739,0,0,0-1.5093.449c-1.1393.4916-2.5407,1.53-2.9508-.193-.32-1.3465.89-1.8018,1.53-2.8622.8853-1.4658.0648-2.7275-1.058-3.6684a39.5433,39.5433,0,0,0-3.197-2.7412c-.7026-.4681-1.5134-.8833-2.2451-1.32-.7165-.4278-1.5018-.922-2.14-.1434-.384-.1932-1.2712-.7318-1.0895-1.2865.1034-.3154,1.1075-.8208,1.3944-1.1554.4687-.5464.781-.7951.5088-1.5493-.1978-.5479-.6411-.8363-.7028-1.4767-.056-.5823.0061-1.1043-.0688-1.6968-.077-.6088.2117-1.2017.1454-1.76a3.7693,3.7693,0,0,0-1.0153-1.4123c-.51-.4971-1.4567-.5491-1.7831-1.1041a2.7256,2.7256,0,0,1,1.3284-.6818c.7206-.1763.9433.068,1.5147-.5365a6.7547,6.7547,0,0,0,1.7616-2.6417c.2683-.8985,1.0614-1.4847,1.4561-2.3635C438.8829,648.6628,438.8992,645.7493,438.0358,645.2829Z"/><path class="cls-1" d="M24.4474,591.7421a6.9117,6.9117,0,0,0,2.8487-.487c1.1264-.4512,1.05-1.3313,1.5862-2.2326.5381-.9052,1.4323-1.2026,1.7051-2.3287.3411-1.4083-.1161-2.942.4975-4.33.1456,1.3.4618,4.1656,2.06,4.4943.8239.1694,1.0783-.76,1.6811-1.1847a1.9044,1.9044,0,0,1,1.9685-.4579c.509.1774,1.3829.79,1.9235.6786.4738-.0978.9414-.6862,1.2288-1.0194.7175-.8319,1.0021-1.358,2.1525-1.6546,1.0973-.283,1.4743-.1183,2.0055-1.1364,1.111.1556,1.232.49,1.1448,1.5226a2.8471,2.8471,0,0,0,.3992,2.3425c.2318.2426.5916.1916.7954.46.227.2986.2246.79.3928,1.1242a5.5345,5.5345,0,0,0,1.5776,1.5459c.832.711.7946.2821,1.8375.32.9841.0354,1.5008.7415,2.104,1.404,1.2477,1.37,1.2588,3.3688,3.4933,3.6314a9.2668,9.2668,0,0,1,2.3934.6371c.317.1206,2.1673.7511,1.7171,1.3288-.117.15-.9674.1065-1.148.1191a2.0168,2.0168,0,0,0-1.4194.4767,4.214,4.214,0,0,0-1.4618,2.0816c-.494,1.2976-1.7186,3.1157-.8993,4.47.32.5289.93.75,1.173,1.3724a3.2215,3.2215,0,0,1-.612,2.6483,4.4345,4.4345,0,0,0-2.2507-.1755c-.6808.2941-.9045,1.6412-1.1609,2.3007a9.6826,9.6826,0,0,0-.957,2.6551c-.0422.93.6927,1.876.5918,2.7968-1.4265-.0625-1.9788-1.6771-3.0941-2.23a9.0081,9.0081,0,0,0-.666,1.5887,4.1268,4.1268,0,0,1-1.218,1.4131,6.7276,6.7276,0,0,0-1.1189,1.4515,4.4251,4.4251,0,0,0-.6466.8792c-.1335.3033-.1393.6708-.4151.8967-.4013.3287-1.0347.1987-1.4926.3442a3.5748,3.5748,0,0,0-1.279.9186c-.9155.8377-1.9,2.2777-2.8514.7842-.7438-1.1673.2507-1.994.5085-3.2056.3564-1.6749-.8322-2.5983-2.2011-3.12a39.5325,39.5325,0,0,0-3.9185-1.5428c-.8171-.2122-1.7192-.3389-2.5536-.5121-.8171-.17-1.721-.3793-2.0687.5654-.4261-.0568-1.4408-.2752-1.4507-.8587-.0057-.3319.7775-1.1384.9391-1.5484.2638-.67.4775-1.0071-.0268-1.63-.3663-.4529-.88-.58-1.1476-1.1651-.2437-.5318-.3559-1.0454-.6208-1.5807-.2721-.55-.1935-1.2048-.4389-1.71a3.77,3.77,0,0,0-1.4218-1.0019c-.6446-.3027-1.5562-.0417-2.0464-.4592.0846-.3667.7218-.879,1.0318-1.0793.6232-.4026.9136-.2447,1.2555-1.003a6.756,6.756,0,0,0,.7992-3.073c-.0408-.9368.5166-1.75.6017-2.71C26.3547,594.6582,25.4159,591.9,24.4474,591.7421Z"/><path class="cls-1" d="M449.36,18.211a6.7238,6.7238,0,0,0,1.4456,2.4109c.8061.8622,1.5773.4832,2.5832.6512,1.01.1688,1.5951.8747,2.7122.725,1.397-.1871,2.6263-1.1422,4.1007-1.0749-1.1271.59-3.6138,1.8868-3.3484,3.4518.1368.8067,1.0694.71,1.6666,1.1065.6778.45,1.0795.7879,1.109,1.6233.0185.524-.2291,1.5323.0627,1.9831a2.8081,2.8081,0,0,0,1.3573.7547c1.0071.3573,1.5843.43,2.2587,1.3683.6433.895.6269,1.2949,1.7372,1.4176.25,1.0621-.01,1.29-.9769,1.5746-.7376.2173-1.6189.4085-1.983,1.1875-.1383.2957.0347.6039-.1364.8831-.1906.3111-.6368.482-.8807.7524a5.3836,5.3836,0,0,0-.8455,1.9751c-.3513,1.0049.0243.82.3579,1.7785a2.9637,2.9637,0,0,1-.5313,2.4025c-.8024,1.6141-2.6105,2.3285-2.061,4.4469a9.0153,9.0153,0,0,1,.266,2.3945c.0024.33.0829,2.23-.5995,2.0251-.1774-.0532-.4375-.84-.5126-.9989a1.9621,1.9621,0,0,0-.9324-1.1188,4.0989,4.0989,0,0,0-2.4024-.5916c-1.3506.01-3.43-.46-4.37.76-.3667.4765-.3519,1.1073-.8308,1.5472a3.1341,3.1341,0,0,1-2.6167.3786,4.3133,4.3133,0,0,0-.6341-2.1024c-.5066-.5136-1.8067-.2416-2.495-.2416a9.4209,9.4209,0,0,0-2.7445.0682c-.8578.29-1.4566,1.2893-2.3269,1.5223-.4462-1.3153.823-2.3851.9313-3.5912a8.7546,8.7546,0,0,0-1.6751-.0438,4.012,4.012,0,0,1-1.71-.6062,6.5412,6.5412,0,0,0-1.71-.5028,4.306,4.306,0,0,0-1.025-.2763c-.322-.0142-.6572.11-.9593-.06-.4394-.2479-.5448-.868-.8382-1.2319a3.4754,3.4754,0,0,0-1.2836-.8358c-1.0821-.5347-2.7344-.9193-1.7158-2.3086.796-1.0858,1.896-.4756,3.0853-.6689,1.6441-.2672,2.0623-1.67,2.0524-3.0951a38.4329,38.4329,0,0,0,.0177-4.0963c-.0956-.8156-.2987-1.6781-.4358-2.4956-.1343-.8006-.2628-1.694-1.2417-1.6762-.0987-.4063-.2584-1.4032.2672-1.6179.2989-.1221,1.306.3037,1.7347.3056.7.0032,1.0813.078,1.4688-.5989.2815-.4918.216-1.002.6518-1.4511.3963-.4084.8223-.6912,1.2143-1.12.4026-.4405,1.024-.6,1.3957-1.0006a3.6677,3.6677,0,0,0,.4072-1.6422c.0472-.6911-.5107-1.4256-.305-2.0172a2.6534,2.6534,0,0,1,1.3422.5551c.5846.423.5438.742,1.3518.7847a6.5706,6.5706,0,0,0,3.0676-.3586c.835-.3671,1.7691-.1485,2.6691-.41C447.3882,20.968,449.5578,19.1447,449.36,18.211Z"/><path class="cls-1" d="M128.6576,43.2365a3.6108,3.6108,0,0,0,1.2243.8839c.5805.2548.8808-.0956,1.413-.2258.5344-.1307.9726.0938,1.4923-.2167.65-.3883,1.0544-1.12,1.7964-1.3993-.4313.53-1.3841,1.6969-.9216,2.4132.2385.3692.6782.1237,1.0571.1931.43.0788.7.16.8913.5664.12.2547.2115.8048.451.9655a1.5081,1.5081,0,0,0,.83.085,1.9331,1.9331,0,0,1,1.4047.1969c.5072.3056.5838.5064,1.1578.3318.3487.4712.2681.6388-.1486.9842-.3181.2635-.7126.5445-.7273,1.0062-.0056.1753.1451.2907.12.4648-.0283.1939-.2122.3728-.2754.558a2.8911,2.8911,0,0,0,.0011,1.154c.0394.57.1857.4.5534.8021a1.5923,1.5923,0,0,1,.2467,1.2984c-.0542.9667-.7953,1.7024-.0753,2.6316a4.8432,4.8432,0,0,1,.6385,1.1256c.0711.1623.5132,1.083.1331,1.1266-.0988.0113-.3938-.3218-.4646-.3845a1.0543,1.0543,0,0,0-.6973-.3547,2.2015,2.2015,0,0,0-1.3112.2169c-.6646.2907-1.7907.5-1.9958,1.3009-.08.3129.0609.6212-.0823.94a1.6832,1.6832,0,0,1-1.2114.7412,2.3165,2.3165,0,0,0-.7584-.9034c-.3588-.1462-.943.2635-1.2827.4093a5.0613,5.0613,0,0,0-1.34.615c-.3621.3246-.4458.945-.8261,1.2443-.4988-.5547-.099-1.3516-.301-1.97a4.7112,4.7112,0,0,0-.8362.3333,2.1557,2.1557,0,0,1-.9726.063,3.5143,3.5143,0,0,0-.9508.1142,2.3094,2.3094,0,0,0-.5644.0807c-.162.0613-.3011.1936-.4863.1735-.2694-.0293-.4528-.3131-.6747-.43a1.8664,1.8664,0,0,0-.8106-.1407c-.6474-.0347-1.5445.1255-1.3361-.7761.163-.7045.8352-.6363,1.3813-.9837.7549-.48.6642-1.2613.3574-1.9625a20.6333,20.6333,0,0,0-.859-2.0257c-.22-.3824-.5029-.7651-.7438-1.14-.2359-.3667-.4885-.7805-.968-.5643-.1348-.18-.4248-.6379-.2108-.8552.1217-.1236.709-.1268.921-.2166.3463-.1468.55-.1906.5981-.6068.0348-.3024-.1056-.54.0144-.8544.109-.2855.2594-.5153.3621-.81.1054-.3028.3783-.5131.4769-.79a1.97,1.97,0,0,0-.1468-.8968c-.1231-.3512-.5541-.5955-.5779-.9311a1.4235,1.4235,0,0,1,.78-.01c.3782.0849.4256.251.8335.1009a3.5293,3.5293,0,0,0,1.4382-.8268c.3344-.3581.8418-.4481,1.2307-.7676C128.2685,45.015,128.9532,43.6554,128.6576,43.2365Z"/><path class="cls-1" d="M423.2636,158.0141a3.6121,3.6121,0,0,0,.9881-1.1418c.3049-.5559-.0178-.8859-.1006-1.4274-.0832-.5439.179-.9607-.0846-1.5056-.33-.6816-1.023-1.1489-1.2359-1.9126.49.4763,1.5686,1.528,2.3228,1.13.3888-.2051.1829-.6647.2854-1.036.1163-.4214.2211-.6829.6425-.838.2643-.0973.82-.14,1.0015-.3643a1.509,1.509,0,0,0,.1577-.8192,1.9323,1.9323,0,0,1,.32-1.382c.3489-.4783.5557-.537.4323-1.1241.5-.3059.66-.2109.9673.2346.2345.34.48.7577.9383.813.1741.0209.3024-.119.4736-.0785.1906.0452.3527.2442.5315.3234a2.8926,2.8926,0,0,0,1.15.1c.5717.0109.4143-.15.8476-.4807a1.5918,1.5918,0,0,1,1.3151-.1315c.9582.139,1.6258.9419,2.6148.3065a4.8388,4.8388,0,0,1,1.1774-.5371c.1679-.0565,1.1239-.416,1.1339-.0335.0026.0995-.3551.364-.4238.429a1.0539,1.0539,0,0,0-.4147.6634,2.2014,2.2014,0,0,0,.1007,1.3251c.2312.6877.34,1.8278,1.12,2.1026.3046.1073.6241-.006.9288.1646a1.6832,1.6832,0,0,1,.6317,1.2719,2.3182,2.3182,0,0,0-.9666.676c-.1772.3446.1795.9625.2949,1.3138a5.0591,5.0591,0,0,0,.4948,1.3891c.2915.3892.902.5273,1.1668.9324-.5964.4481-1.3551-.02-1.9887.1266a4.7049,4.7049,0,0,0,.2584.8622,2.1559,2.1559,0,0,1-.0227.9744,3.5153,3.5153,0,0,0,.03.9571,2.3138,2.3138,0,0,0,.0308.5694c.0468.1667.1664.3169.13.5-.0529.2659-.3516.4236-.4882.6343a1.8679,1.8679,0,0,0-.2114.7951c-.0915.6418-.0108,1.5495-.8905,1.2626-.6876-.2243-.56-.8879-.8585-1.4625-.4119-.7942-1.198-.7725-1.9235-.5286a20.6677,20.6677,0,0,0-2.0934.6775c-.4.1855-.8063.4337-1.2.6407-.386.2027-.82.418-.6473.9146-.1908.1185-.6728.367-.87.1348-.1124-.1321-.0639-.7174-.1347-.9365-.1158-.3579-.1415-.5649-.5518-.6492-.2982-.0612-.5476.0577-.85-.0894-.2748-.1338-.49-.3038-.7751-.432-.2923-.1316-.4778-.422-.7445-.5445a1.9682,1.9682,0,0,0-.9063.0674c-.3606.0917-.6419.5-.9783.4937a1.4249,1.4249,0,0,1,.0583-.778c.1179-.3692.2875-.4019.1739-.8213a3.5294,3.5294,0,0,0-.6972-1.5055c-.3273-.3645-.3723-.8779-.6563-1.2934C425.001,158.5581,423.7069,157.7564,423.2636,158.0141Z"/></svg>