<svg xmlns="http://www.w3.org/2000/svg" width="447.8774" height="181.7992" viewBox="0 0 447.8774 181.7992"><defs><style>.cls-1{fill:#01fe03;}</style></defs><title>revolver</title><g id="bum_" data-name="bum!"><path class="cls-1" d="M359.8556,32.3185c3.633-3.4886,4.8606-8.4587,10.4163-10.1108l.2608,1.7577C383.3185,19.4479,389.86,3.8251,402.8694,0a94.456,94.456,0,0,1-11.7455,19.683q14.0763-1.98,28.25-3.1594a24.0469,24.0469,0,0,1-10.5748,7.0231c13.04-.2153,26.1263-.4285,39.0785,1.0968-11.898,6.814-25.7418,9.2317-39.2974,11.2908,9.12,3.4778,19.5342,4.7321,28.014,9.5649-5.6561.7059-12.6112,3.287-18.311,3.2541l1.2217,4.3654q-4.34.2336-8.6892.1272a13.0671,13.0671,0,0,0,10.4135,5.9147A15.4482,15.4482,0,0,1,410.6455,61.5,148.0593,148.0593,0,0,0,420.31,82.4071c-8.5934-1.8252-17.3949-4.0834-24.3712-9.4228-4.0759-3.1195-7.5284-7.2822-12.3371-9.0766l-.0765,5.5172a37.943,37.943,0,0,1-14.4886-10.4681c-1.1608,1.5652-2.8406,3.3227-4.7123,2.7814-2.793-.8076-2.9728-5.1743-4.0747-7.3758-1.4985-2.994-4.1695-5.2193-6.0661-7.9783s-2.903-6.6973-.8449-9.3381c1.1135-1.4287,2.8746-2.1527,4.4194-3.0984A12.2527,12.2527,0,0,0,359.8556,32.3185Z"/></g><g id="gun"><path class="cls-1" d="M114.1941,94.532H98.8206a6.8,6.8,0,0,0,2.6523,2.6325c2.6011,1.342,5.6815,1.2332,8.6049,1.0927-.5319,9.2506,4.595,17.116,12.7521,18.5334,1.0424.1813,2.2983-1.1385,1.274-1.4046C117.0919,113.5618,112.8945,103.0141,114.1941,94.532Z"/><path class="cls-1" d="M62.3431,36.6a13.358,13.358,0,0,1-.822,16.0356l-3.5439,4.3779.5793,1.2505A40.6265,40.6265,0,0,0,78.2988,31.5927l-2.2353,1.0618c-3.21.8962-6.2217-.5328-9.0265-2.3321-7.9527-5.1018-15.4147-8.0322-25.4242-7.1678l-.9851,1.8678C47.16,25.8386,57.416,29.6549,62.3431,36.6Z"/><path class="cls-1" d="M158.647,77.5355H105.112v.0037l-.009-.0037h-.1195v-.0532l-2.04-.9048a25.7685,25.7685,0,0,1,0-47.13l2.04-.9048V28.413H158.647v2.1245h16.9453V21.03H108.8442l4.5608,4.1335H81.9333l-.8076,5.6214c-.1454,1.012-.4223,1.9786-.6407,2.9667A40.6282,40.6282,0,0,1,60.7432,60.4228,46.0568,46.0568,0,0,1,56.0575,62.7l4.2456.5431c20.3443,4.12,34.0753,21.2664,25.1989,39.5517.5892,5.0058,2.4809,10.4661,7.4768,14.4039a30.1575,30.1575,0,0,0,19.41,6.4842q1.79,0,3.684-.1393c8.4855-.6238,14.5337-3.6482,17.9771-8.9869,3.2374-5.019,4.2955-11.12,4.525-15.9907a6.1214,6.1214,0,0,1,6.1022-5.8649h14.4666a12.7475,12.7475,0,0,0,12.1633-8.9325l4.2852-13.6647V68.67H158.647ZM78.2988,66.44a3.156,3.156,0,1,1,3.1558-3.1558A3.1558,3.1558,0,0,1,78.2988,66.44Zm53.0545,46.3775c-2.8682,4.4471-8.0883,6.9795-15.5152,7.5262-8.9741.65-15.549-1.6473-20.6648-5.4858A16.98,16.98,0,0,1,88.82,104.2684a9.72,9.72,0,0,1,9.5741-11.5675h30.85a6.0914,6.0914,0,0,1,6.0981,6.518C135.0113,103.5259,134,108.7138,131.3533,112.8173Zm5.7541-24.7155a3.156,3.156,0,1,1,3.1554-3.1562A3.1559,3.1559,0,0,1,137.1074,88.1017Z"/><path class="cls-1" d="M343.203,15.89a5.8411,5.8411,0,0,0-4.436-3.4533c-3.4-.7223-6.9205.7112-9.7714,2.0664Q323.5981,17.07,318.2,19.6354h25.1A7.18,7.18,0,0,0,343.203,15.89Z"/><path class="cls-1" d="M177.9479,49.6469V63.3277H344.7415V50.904h4.0116V32.0113H177.9479Zm1.9563-13.7282H346.7968v2.3527H179.9043Zm0,14.8831H342.29V52.787H179.9043Z"/><path class="cls-1" d="M129.2943,37.095H155.286V31.1185H105.7848V74.9042H155.286V72.3566H129.2943c-2.6617,0-4.81-1.4879-4.81-3.3066a2.9138,2.9138,0,0,1,1.4009-2.33,5.963,5.963,0,0,1,3.4092-.9757H155.286V47.2781H129.2943a4.9543,4.9543,0,0,1-4.81-5.0911,5.3058,5.3058,0,0,1,1.4009-3.6037A4.71,4.71,0,0,1,129.2943,37.095Z"/><path class="cls-1" d="M102.0217,72.65V33.3744a22.6831,22.6831,0,0,0,0,39.2761Z"/><path class="cls-1" d="M40.4937,67.2952c-13.113,39.0766-41.4,34.9456-40.4714,105.14a5.7024,5.7024,0,0,0,4.2143,5.43,114.7752,114.7752,0,0,0,62.4271-.7969,5.6622,5.6622,0,0,0,3.7013-7.3894c-9.359-25.1721-10.4966-63.1053,12.6656-66.5483.0569-.1121.0968-.2237.1512-.3362C94.2429,80.01,65.6419,58.2292,40.4937,67.2952Zm35.6526,32.7655a24.0921,24.0921,0,0,0-11.1781,10.1719c-8.5988,14.5461-6.0718,38.5842-1.2954,54.7476a7.43,7.43,0,0,1-.7124,5.8427,7.2137,7.2137,0,0,1-4.6593,3.4281,108.3583,108.3583,0,0,1-24.0946,2.6758,111.288,111.288,0,0,1-23.4588-2.4986,7.464,7.464,0,0,1-5.8666-7.3272c.342-39.1273,10.6149-52.1563,21.4872-65.9541,5.81-7.3672,11.8135-14.9845,16.53-26.3756a7.261,7.261,0,0,1,5.7256-4.4545c11.476-1.4809,23.9014,3.9877,29.3456,12.816a17.9135,17.9135,0,0,1,2.76,10.5222A7.5365,7.5365,0,0,1,76.1463,100.0607Z"/><path class="cls-1" d="M52.5952,73.1535a27.8435,27.8435,0,0,0-3.5773.23,4.1513,4.1513,0,0,0-3.2633,2.5711C40.874,87.74,34.7376,95.5258,28.8026,103.0582,18.26,116.4292,8.3055,129.056,7.9713,167.1248a4.3682,4.3682,0,0,0,3.4281,4.2856,107.9794,107.9794,0,0,0,46.2094-.1689,4.17,4.17,0,0,0,2.684-1.98,4.3323,4.3323,0,0,0,.4182-3.4042c-5.1908-17.5638-7.4962-41.815,1.5933-57.1938A27.1462,27.1462,0,0,1,74.9069,97.2279a4.4624,4.4624,0,0,0,2.74-3.7705,14.6172,14.6172,0,0,0-2.31-8.7034C71.06,77.8169,61.9183,73.1535,52.5952,73.1535ZM33.0074,159.5A6.8946,6.8946,0,1,1,39.9,152.603,6.9047,6.9047,0,0,1,33.0074,159.5Z"/><polygon class="cls-1" points="83.923 23.005 106.922 23.005 102.361 18.872 98.364 15.249 83.923 15.249 83.923 13.11 76.656 13.11 76.656 23.005 82.452 23.005 83.923 23.005"/><polygon class="cls-1" points="158.647 33.113 158.647 52.653 158.647 53.129 158.647 66.095 175.592 66.095 176.403 66.095 176.403 52.653 176.403 33.113 175.592 33.113 158.647 33.113"/><path class="cls-1" d="M345.1425,21.7171H177.9479v8.3717H348.7531V25.3269A3.61,3.61,0,0,0,345.1425,21.7171ZM206.2156,27.2663H182.68a1.5047,1.5047,0,0,1,0-3.0087h23.5359a1.5047,1.5047,0,0,1,0,3.0087Zm44.3251,0H227.0049a1.5047,1.5047,0,0,1,0-3.0087h23.5359a1.5047,1.5047,0,0,1,0,3.0087Zm44.3255,0H271.3312a1.5047,1.5047,0,0,1,0-3.0087h23.5351a1.5047,1.5047,0,0,1,0,3.0087Zm44.326,0H315.6564a1.5047,1.5047,0,0,1,0-3.0087h23.5359a1.5047,1.5047,0,0,1,0,3.0087Z"/></g></svg>