<svg id="Layer_1" data-name="Layer 1" xmlns="http://www.w3.org/2000/svg" width="412.5178" height="391.7574" viewBox="0 0 412.5178 391.7574"><defs><style>.cls-1{fill:#01fe03;}</style></defs><title>sherif</title><path class="cls-1" d="M411.5513,149.07a20.3215,20.3215,0,0,0-39.65,7.33l-57.07-5.03-60.86-5.37a6.5737,6.5737,0,0,0-.88-.02l-22.31-53.16L208.6213,40a20.33,20.33,0,1,0-10.18,0l-22.16,52.82-22.49,53.6-56.11,4.95-57.06,5.03a20.342,20.342,0,1,0-3.1,9.69l43.57,37.19,43.67,37.27-12.02,55.83-12.05,56.01a20.3307,20.3307,0,1,0,8.34,5.82l48.4-30.64,48.83-30.89,48.82,30.89,48.4,30.64a20.3353,20.3353,0,1,0,8.34-5.82l-12.05-56.01-12.01-55.83,43.66-37.27,43.57-37.19a20.3246,20.3246,0,0,0,36.56-17.02Z"/><path class="cls-1" d="M310.9636,144.5073l35.0583,3.0918a154.3634,154.3634,0,0,0-121.6-86.7339L237.7847,92.71A125.421,125.421,0,0,1,310.9636,144.5073Z"/><path class="cls-1" d="M168.3088,95.0249l13.9026-33.1377A154.4656,154.4656,0,0,0,68.1062,147.4585l35.0869-3.0942A125.5745,125.5745,0,0,1,168.3088,95.0249Z"/><path class="cls-1" d="M312.7393,325.76a153.824,153.824,0,0,0,46.168-137.3887L331.999,211.34c.0168.8442.0322,1.689.0322,2.5371a124.3879,124.3879,0,0,1-26.7534,77.1992Z"/><path class="cls-1" d="M207.0312,338.8774a124.4117,124.4117,0,0,1-43.1511-7.68l-29.2971,18.54a153.7351,153.7351,0,0,0,144.0522.4458l-29.4385-18.6313A124.43,124.43,0,0,1,207.0312,338.8774Z"/><path class="cls-1" d="M54.9629,189.5293a153.8419,153.8419,0,0,0,45.0764,135l7.5378-35.0229a124.3523,124.3523,0,0,1-25.5459-75.6284c0-.4121.0117-.8208.0156-1.2319Z"/></svg>