<?xml version="1.0" encoding="utf-8"?>
<!-- Generator: Adobe Illustrator 21.1.0, SVG Export Plug-In . SVG Version: 6.00 Build 0)  -->
<svg version="1.1" id="Layer_2" xmlns="http://www.w3.org/2000/svg" xmlns:xlink="http://www.w3.org/1999/xlink" x="0px" y="0px"
	 viewBox="0 0 212.2 216.5" style="enable-background:new 0 0 212.2 216.5;" xml:space="preserve">
<style type="text/css">
	.st0{fill:#01FE03;}
</style>
<title>tv-01</title>
<path id="tv" class="st0" d="M207.7,47.9h-90.2c-0.1-1.4-0.6-2.7-1.5-3.7l35.5-39.7c0.4-0.6,0.3-1.4-0.2-1.8l-2.3-2.2
	c-0.5-0.5-1.3-0.6-1.8-0.2l-41.4,39.4c-1.9-0.2-3.9-0.2-5.8,0L56.5,0.8c-0.6-0.4-1.4-0.3-1.8,0.2l-2.2,2.3c-0.5,0.5-0.6,1.3-0.2,1.8
	l37.3,39.3c-0.8,0.9-1.2,2.1-1.3,3.3H4.5c-2.5,0-4.5,2-4.5,4.5l0,0v148.3c0,2.5,2,4.5,4.5,4.5h16.1v9.8c0,0.9,0.7,1.6,1.6,1.6H26
	c0.9,0,1.6-0.7,1.6-1.6v-9.8h160v9.8c0,0.9,0.7,1.6,1.6,1.6h3.7c0.9,0,1.6-0.7,1.6-1.6v-9.8h13.1c2.5,0,4.5-2,4.5-4.5V52.4
	C212.2,49.9,210.2,47.9,207.7,47.9L207.7,47.9z M9,56.9h162.2v121.3H9V56.9z M203.2,178.1h-28V56.9h28V178.1z"/>
</svg>
