<svg id="Layer_2" data-name="Layer 2" xmlns="http://www.w3.org/2000/svg" viewBox="0 0 678.97 678.97"><defs><style>.cls-1{fill:#01fe03}</style></defs><path class="cls-1" d="M507.59 829.07a339.48 339.48 0 11240.05-99.43 337.26 337.26 0 01-240.05 99.43zm0-666c-180 0-326.48 146.46-326.48 326.48s146.46 326.52 326.48 326.52 326.48-146.46 326.48-326.48-146.46-326.48-326.48-326.48z" transform="translate(-168.11 -150.11)"/><path class="cls-1" transform="rotate(-60 425.695 316.015)" d="M617.26 238.99h45v13h-45z"/><path class="cls-1" transform="rotate(-30 379.913 582.897)" d="M721.61 337.77h45v13h-45z"/><path class="cls-1" transform="matrix(.5 -.87 .87 .5 -330.72 811.75)" d="M745.2 599.26h13v45h-13z"/><path class="cls-1" transform="rotate(-30 288.737 964.747)" d="M646.41 703.61h13v45h-13z"/><path class="cls-1" transform="rotate(-60 161.382 804.238)" d="M352.92 727.2h45v13h-45z"/><path class="cls-1" transform="rotate(-30 -93.07 873.562)" d="M248.58 628.41h45v13h-45z"/><path class="cls-1" transform="rotate(-60 49.437 427.953)" d="M256.98 334.92h13v45h-13z"/><path class="cls-1" transform="rotate(-30 -1.875 491.718)" d="M355.77 230.58h13v45h-13z"/><path class="cls-1" d="M493.48 262.73h-15.42v-60.06h-7.5v-15.43h22.92zM538.48 262.73h-37.92v-45.49h22.5v-14.57h-22.5v-15.43h37.92v45.42H516v14.58h22.5zM220.49 523.9v-15.48H243v-14.58h-22.5v-45.42h37.92v75.48zm15.42-45.48H243v-14.58h-7.08zM758 523.9v-15.48h22.5v-14.58H758v-15.42h22.5v-14.58H758v-15.42h37.92v75.48zM487.06 798.08V722.6H525V738h-22.5v14.6H525v45.48zm15.42-15.48h7.08V768h-7.08z" transform="translate(-168.11 -150.11)"/></svg>